# xmcd
#
# Track frame offsets: 
#        150
#        26996
#        44216
#        56223
#        80628
#        103886
#        139762
#        160909
#        196761
#        206675
#        233369
#        264216
#
# Disc length: 3875 seconds
#
# Revision: 1
# Processed by: cddbd v1.5.2PL0 Copyright (c) Steve Scherf et al.
# Submitted via: ExactAudioCopy v1.0b1
#
DISCID=ab0f210c
DTITLE=Béla Fleck and The Flecktones - Rocket Science
DYEAR=2011
DGENRE=Jazz
TTITLE0=Gravity Lane
TTITLE1=Prickly Pear
TTITLE2=Joyful Spring
TTITLE3=Life In Eleven
TTITLE4=Falling Forward
TTITLE5=Storm Warning
TTITLE6=Like Water
TTITLE7=Earthling Parade
TTITLE8=The Secret Drawer
TTITLE9=Sweet Pomegranates
TTITLE10=Falani
TTITLE11=Bottle Rocket
EXTD=
EXTT0=
EXTT1=
EXTT2=
EXTT3=
EXTT4=
EXTT5=
EXTT6=
EXTT7=
EXTT8=
EXTT9=
EXTT10=
EXTT11=
PLAYORDER=
